<mxfile host="Electron" modified="2023-09-14T08:24:13.347Z" agent="Mozilla/5.0 (Windows NT 10.0; Win64; x64) AppleWebKit/537.36 (KHTML, like Gecko) draw.io/21.6.8 Chrome/114.0.5735.289 Electron/25.5.0 Safari/537.36" etag="sJST43vEdP3LUNaCgWsC" version="21.6.8" type="device">
  <diagram name="Страница — 1" id="PfaczfLrEo2HIrUR9auO">
    <mxGraphModel dx="864" dy="516" grid="1" gridSize="10" guides="1" tooltips="1" connect="1" arrows="1" fold="1" page="1" pageScale="1" pageWidth="827" pageHeight="1169" math="0" shadow="0">
      <root>
        <mxCell id="0" />
        <mxCell id="1" parent="0" />
        <mxCell id="-2Q0n8ln_qe0_djwJmo1-3" style="edgeStyle=orthogonalEdgeStyle;rounded=0;orthogonalLoop=1;jettySize=auto;html=1;exitX=1;exitY=0;exitDx=0;exitDy=0;" parent="1" source="-2Q0n8ln_qe0_djwJmo1-1" target="-2Q0n8ln_qe0_djwJmo1-2" edge="1">
          <mxGeometry relative="1" as="geometry" />
        </mxCell>
        <mxCell id="RnBcirLMjKb7YaK9QwF1-2" style="edgeStyle=orthogonalEdgeStyle;rounded=0;orthogonalLoop=1;jettySize=auto;html=1;exitX=0;exitY=0;exitDx=0;exitDy=0;entryX=1;entryY=0.5;entryDx=0;entryDy=0;" edge="1" parent="1" source="-2Q0n8ln_qe0_djwJmo1-1" target="RnBcirLMjKb7YaK9QwF1-1">
          <mxGeometry relative="1" as="geometry" />
        </mxCell>
        <mxCell id="RnBcirLMjKb7YaK9QwF1-12" style="edgeStyle=orthogonalEdgeStyle;rounded=0;orthogonalLoop=1;jettySize=auto;html=1;exitX=0;exitY=0.5;exitDx=0;exitDy=0;entryX=1;entryY=0.5;entryDx=0;entryDy=0;" edge="1" parent="1" source="-2Q0n8ln_qe0_djwJmo1-1" target="RnBcirLMjKb7YaK9QwF1-11">
          <mxGeometry relative="1" as="geometry" />
        </mxCell>
        <mxCell id="RnBcirLMjKb7YaK9QwF1-16" style="edgeStyle=orthogonalEdgeStyle;rounded=0;orthogonalLoop=1;jettySize=auto;html=1;exitX=0;exitY=1;exitDx=0;exitDy=0;entryX=0.5;entryY=0;entryDx=0;entryDy=0;" edge="1" parent="1" source="-2Q0n8ln_qe0_djwJmo1-1" target="RnBcirLMjKb7YaK9QwF1-15">
          <mxGeometry relative="1" as="geometry" />
        </mxCell>
        <mxCell id="RnBcirLMjKb7YaK9QwF1-18" style="edgeStyle=orthogonalEdgeStyle;rounded=0;orthogonalLoop=1;jettySize=auto;html=1;exitX=1;exitY=1;exitDx=0;exitDy=0;entryX=0;entryY=0.5;entryDx=0;entryDy=0;" edge="1" parent="1" source="-2Q0n8ln_qe0_djwJmo1-1" target="RnBcirLMjKb7YaK9QwF1-17">
          <mxGeometry relative="1" as="geometry" />
        </mxCell>
        <mxCell id="RnBcirLMjKb7YaK9QwF1-20" style="edgeStyle=orthogonalEdgeStyle;rounded=0;orthogonalLoop=1;jettySize=auto;html=1;exitX=0.5;exitY=0;exitDx=0;exitDy=0;entryX=0.5;entryY=1;entryDx=0;entryDy=0;" edge="1" parent="1" source="-2Q0n8ln_qe0_djwJmo1-1" target="RnBcirLMjKb7YaK9QwF1-19">
          <mxGeometry relative="1" as="geometry" />
        </mxCell>
        <mxCell id="-2Q0n8ln_qe0_djwJmo1-1" value="Программная инженерия" style="ellipse;whiteSpace=wrap;html=1;" parent="1" vertex="1">
          <mxGeometry x="354" y="290" width="120" height="80" as="geometry" />
        </mxCell>
        <mxCell id="-2Q0n8ln_qe0_djwJmo1-2" value="UML диаграммы" style="rounded=0;whiteSpace=wrap;html=1;" parent="1" vertex="1">
          <mxGeometry x="550" y="230" width="120" height="60" as="geometry" />
        </mxCell>
        <mxCell id="RnBcirLMjKb7YaK9QwF1-1" value="Управление командой" style="rounded=0;whiteSpace=wrap;html=1;" vertex="1" parent="1">
          <mxGeometry x="190" y="220" width="120" height="60" as="geometry" />
        </mxCell>
        <mxCell id="RnBcirLMjKb7YaK9QwF1-11" value="Определение задач" style="rounded=0;whiteSpace=wrap;html=1;" vertex="1" parent="1">
          <mxGeometry x="200" y="340" width="120" height="60" as="geometry" />
        </mxCell>
        <mxCell id="RnBcirLMjKb7YaK9QwF1-15" value="Планирование проекта" style="rounded=0;whiteSpace=wrap;html=1;" vertex="1" parent="1">
          <mxGeometry x="370" y="420" width="120" height="60" as="geometry" />
        </mxCell>
        <mxCell id="RnBcirLMjKb7YaK9QwF1-17" value="Модель вариантов использования" style="rounded=0;whiteSpace=wrap;html=1;" vertex="1" parent="1">
          <mxGeometry x="550" y="350" width="120" height="60" as="geometry" />
        </mxCell>
        <mxCell id="RnBcirLMjKb7YaK9QwF1-19" value="Архитектура проекта" style="rounded=0;whiteSpace=wrap;html=1;" vertex="1" parent="1">
          <mxGeometry x="353" y="170" width="120" height="60" as="geometry" />
        </mxCell>
      </root>
    </mxGraphModel>
  </diagram>
</mxfile>
